<svg width="22" height="20" viewBox="0 0 22 20" fill="none" xmlns="http://www.w3.org/2000/svg">
<path d="M3.49999 19.5V10.2403L1.63274 11.673L0.730743 10.477L3.49999 8.35001V5.48076H4.99999V7.20001L11 2.62501L21.2692 10.477L20.3672 11.6578L18.5 10.2403V19.5H3.49999ZM4.99999 18H9.80774V13.6153H12.1922V18H17V9.10001L11 4.52501L4.99999 9.10001V18ZM3.49999 4.38476C3.49999 3.66676 3.74199 3.05459 4.22599 2.54826C4.70999 2.04176 5.33983 1.78851 6.11549 1.78851C6.47566 1.78851 6.75158 1.68309 6.94324 1.47226C7.13491 1.26126 7.23074 1.00126 7.23074 0.692261H8.73074C8.73074 1.41026 8.48874 2.02251 8.00474 2.52901C7.52074 3.03534 6.89099 3.28851 6.11549 3.28851C5.75516 3.28851 5.47916 3.39393 5.28749 3.60476C5.09583 3.81576 4.99999 4.07576 4.99999 4.38476H3.49999Z" fill="#1C1B1F" fill-opacity="0.54"/>
</svg>
